<?xml version="1.0" encoding="UTF-8"?> <!-- Generator: Adobe Illustrator 23.0.3, SVG Export Plug-In . SVG Version: 6.00 Build 0) --> <svg xmlns="http://www.w3.org/2000/svg" xmlns:xlink="http://www.w3.org/1999/xlink" id="Layer_1" x="0px" y="0px" viewBox="0 0 100 100" style="enable-background:new 0 0 100 100;" xml:space="preserve"> <style type="text/css"> .st0{display:none;fill:#424242;stroke:#231F20;stroke-miterlimit:10;} .st1{fill:#015A82;} </style> <rect x="-3473.4" y="-3064.7" class="st0" width="6292.7" height="5258.1"></rect> <path class="st1" d="M78.2,22c0,0-6.1-1.8-10.2-0.9s-7.3,9.7-5.7,11.9c0,0,0.8,1.1,1.8,1c0,0-1.4,4.3-0.1,6.8 c1.2,2.5,5.7,3.7,7.1,3.4l-0.7,1.4c0,0-1.7-0.3-2.3,0c-0.5,0.3-0.6,0.8-1.1,0.8c-0.5-0.1-5.2-0.1-6.8-1.3s-0.3-2.9-2.2-3.3 c-1.9-0.3-4.5,0.5-2.6,3s3.2,1.7,3.7,2s5.6,3,8.2,3.1c0,0,0.6,6.4-0.1,7.4c-0.6,1.1-8.2,5.3-10.2,4.3c0,0,1.4,3.1,4,3 c0,0,2.5,2.8,4.9,2.3c0,0-1.6,14.3-1.6,15.3s0.6,2.8,1.8,3c1.2,0.1,0.7,0.2,1.5-0.8c0.7-1.1,1.4-8.2,1.6-10.2s1.7-4,1.9-5.6 c0.2-1.6,1.7-1.3,2.5-0.6c0.8,0.7-0.1,2.8-1.5,4.3s-3.1,1.8-3.8,2.9c-0.7,1.1-0.4,4,1.6,3.1s7.3-5.9,8.5-7c1.1-1.1,0-3-0.3-3.4 c0,0,2.2,0.4,3.6-0.4c0,0,2.7,0.3,5-1.6c0,0-8.1-5.3-9.9-7.5s-0.6-6.4-0.3-7.2c0.2-0.9,4.5,0.4,6.2,0.1c1.7-0.3,5.3-6,7.3-6.9 c0.9-0.4,2.6-0.5,3.3-2.4c0.7-1.9-0.9-3.4-2-3.3c-1.1,0.1-2.8,2.1-2.9,3.1s-4.8,4.4-5.5,5.1c-0.7,0.7-5,0.5-5.7,0.4 s-0.7-1.2-1.4-1.4c-0.6-0.2-2.3-0.1-2.3-0.1l0.1-1.1c0,0,1.7,0.3,4.4-0.7c2.6-1,6.8-5.3,6.9-8.7s0-4.7,0-4.7s2.1,2.6,3.8-2 C90.2,23.8,85,15.1,78.2,22z"></path> <path class="st1" d="M24.6,40.2c0,0-6.9-1.6-8.3-3.3c-1.4-1.6-3.3-10.7,0-14.7c0,0-0.4,1.5-0.4,2.8c0,0,3.6-5.6,8.8-6.8 c0,0-1.1,1.3-1.5,1.8c0,0,1.9-1.1,3.8-0.3c1.9,0.9,3.9-2.1,3.9-2.1s0.6,1.5,0.1,2.3c0,0,1.8,0,2.8-0.5c0,0-0.6,2.1,0.3,3.5 c0.9,1.4,2.5,4.8,4.1,4.9c0,0-0.5,1.1-1.5,0.8c0,0-1,5.6-2,7.7c-1,2-4.3,3-4.3,3l0.1,1.4c0,0,1.4-0.8,4.5-1.3 c3.1-0.5,5.6-0.3,5.6-0.3l0.4,1c0,0,7.8-0.6,8.7-1s-0.4-1.4,1.9-2.6c2.3-1.3,4.9-0.1,4.9,2.3s-3.8,3.8-4.8,3s-1.9-0.5-1.9-0.5 l-8.3,2c0,0,0.3,0.9,0,1.4s-4.3,0.8-4.3,0.8s1.1,5,1.8,6.8c0.6,1.8,2.6,3.4,3.3,3.8c0.6,0.4-1.3,1-1.3,1s1.4,2.4,2.4,3.1 c1,0.8,2,4.1,2.1,6.1s0,2.3-1.9,2.9s-4.8-2.4-5.5-3.8c-0.8-1.4-1.5-1.9-1.5-1.9S36.5,66.8,38,69c1.5,2.3,3.1,4.4,2.6,5.5 s-1.3,1-1.3,1l0.3,1.6c0,0,0.6,0,0.9,1.1c0.3,1.1-1.6,2.5-3.3,3.1c-1.6,0.6-2.6,0.1-3.1-0.8s0.5-2.3,1.3-2.6c0.8-0.4-0.1-1-0.1-1 s-0.8-0.1-1.4-0.1c-0.6,0-1.1-2.6-1.8-5c-0.6-2.4-1.4-8.5-1.9-8.8s-1.5-0.3-2-0.4c-0.5-0.1-0.8-7.1-2.5-10c-1.8-2.9-1.9-4.5-3.5-5 s-4.6-2.4-5-2.9s0.3-1.6,0.3-1.6s-2.4-0.5-4.8-2.3s-2.1-2.9-3.4-3.3c-1.3-0.4-2.4-2-2.6-3.5c-0.3-1.4,2.3-3.3,3.4-3s1.3,3.9,1.8,5.5 s5.8,4.3,6.8,4.1c1-0.1,1.9-0.5,2.5,0.1s0.5,0.9,1.8,0.9s2.1-0.4,2.1-0.4L24.6,40.2z"></path> </svg> 